/* XPM */
static char *e009db795c034035eec10196a1925565lW0Xm5njh6fZUN7Y[] = {
/* columns rows colors chars-per-pixel */
"36 40 2 1 ",
"  c None",
". c #FFFFFF",
/* pixels */
"................................    ",
"................................    ",
"................................    ",
"................................    ",
"....                    ........    ",
"....                    ........    ",
"....                    ........    ",
"....                    ........    ",
"....                    ........    ",
"....                    ........    ",
"....                    ........    ",
"....                    ........    ",
"....................................",
"....................................",
"....................................",
"....................................",
"....................................",
"....................................",
"....................................",
"....................................",
"....................................",
"....................................",
"....................................",
"....................................",
"....................................",
"....................................",
"....................................",
"....................................",
"............        ............    ",
"............        ............    ",
"............        ............    ",
"............        ............    ",
"............        ............    ",
"............        ............    ",
"............        ............    ",
"............        ............    ",
"............        ............    ",
"............        ............    ",
"............        ............    ",
"............        ............    "
};
