/* XPM */
static char *_04c57e3327a4011cdf861c2419c4330v68VfHxW5DZelWHX[] = {
/* columns rows colors chars-per-pixel */
"36 40 2 1 ",
"  c None",
". c #00FFC7",
/* pixels */
"                                    ",
"                                    ",
"                                    ",
"                                    ",
"................................    ",
"................................    ",
"................................    ",
"................................    ",
"....                    ........    ",
"....                    ........    ",
"....                    ........    ",
"....                    ........    ",
"....                    ........    ",
"....                    ........    ",
"....                    ........    ",
"....                    ........    ",
"....................................",
"....................................",
"....................................",
"....................................",
"....................................",
"....................................",
"....................................",
"....................................",
"....................................",
"....................................",
"....................................",
"....................................",
"............        ............    ",
"............        ............    ",
"............        ............    ",
"............        ............    ",
"............        ............    ",
"............        ............    ",
"............        ............    ",
"............        ............    ",
"............        ............    ",
"............        ............    ",
"............        ............    ",
"............        ............    "
};
