/* XPM */
static char *d1827c58f4b34a96a958ad30b492e6b96ZaKa9RcDeXI3dQe[] = {
/* columns rows colors chars-per-pixel */
"9 10 2 1 ",
"  c None",
". c #00FFC7",
/* pixels */
"         ",
"........ ",
".     .. ",
".     .. ",
".........",
".........",
".........",
".........",
"...  ... ",
"...  ... "
};
