/* XPM */
static char *ee596dfbddf54143f42990c624ee6d5aT57lRBCRxSc3kTVs[] = {
/* columns rows colors chars-per-pixel */
"9 10 2 1 ",
"  c None",
". c #00FFC7",
/* pixels */
"........ ",
".     .. ",
".     .. ",
".........",
".........",
".........",
".........",
"...  ... ",
"...  ... ",
"...  ... "
};
