/* XPM */
static char *_40d146bb9154aa5fe730f8cfa346baeRIoCkCLACrNEj0Ue[] = {
/* columns rows colors chars-per-pixel */
"58 59 4 1 ",
"  c None",
". c black",
"X c #621919",
"o c #BBFF34",
/* pixels */
"                            ..                            ",
"                          ..oo..                          ",
"                        ..oooooo..                        ",
"                      ..oooooooooo..                      ",
"                    ..oooooooooooooo..                    ",
"                  ..oooooooooooooooooo..                  ",
"                ..oooooooooooooooooooooo..                ",
"              ..oooooooooooooooooooooooooo..              ",
"            ..oooooooooooooooooooooooooooooo..            ",
"          ..oooooooooooooooooooooooooooooooooo..          ",
"        ..oooooooooooooooooooooooooooooooooooooo..        ",
"      ..oooooooooooooooooooooooooooooooooooooooooo..      ",
"    ..oooooooooooooooooooooooooooooooooooooooooooooo..    ",
"  ..oooooooooooooooooooooooooooooooooooooooooooooooooo..  ",
"..oooooooooooooooooooooooooooooooooooooooooooooooooooooo..",
".X..oooooooooooooooooooooooooooooooooooooooooooooooooo..X.",
".XXX..oooooooooooooooooooooooooooooooooooooooooooooo..XXX.",
".XXXXX..oooooooooooooooooooooooooooooooooooooooooo..XXXXX.",
".XXXXXXX..oooooooooooooooooooooooooooooooooooooo..XXXXXXX.",
".XXXXXXXXX..oooooooooooooooooooooooooooooooooo..XXXXXXXXX.",
".XXXXXXXXXXX..oooooooooooooooooooooooooooooo..XXXXXXXXXXX.",
".XXXXXXXXXXXXX..oooooooooooooooooooooooooo..XXXXXXXXXXXXX.",
".XXXXXXXXXXXXXXX..oooooooooooooooooooooo..XXXXXXXXXXXXXXX.",
".XXXXXXXXXXXXXXXXX..oooooooooooooooooo..XXXXXXXXXXXXXXXXX.",
".XXXXXXXXXXXXXXXXXXX..oooooooooooooo..XXXXXXXXXXXXXXXXXXX.",
".XXXXXXXXXXXXXXXXXXXXX..oooooooooo..XXXXXXXXXXXXXXXXXXXXX.",
".XXXXXXXXXXXXXXXXXXXXXXX..oooooo..XXXXXXXXXXXXXXXXXXXXXXX.",
".XXXXXXXXXXXXXXXXXXXXXXXXX..oo..XXXXXXXXXXXXXXXXXXXXXXXXX.",
".XXXXXXXXXXXXXXXXXXXXXXXXXXX..XXXXXXXXXXXXXXXXXXXXXXXXXXX.",
".XXXXXXXXXXXXXXXXXXXXXXXXXXXXXXXXXXXXXXXXXXXXXXXXXXXXXXXX.",
".XXXXXXXXXXXXXXXXXXXXXXXXXXXXXXXXXXXXXXXXXXXXXXXXXXXXXXXX.",
".XXXXXXXXXXXXXXXXXXXXXXXXXXXXXXXXXXXXXXXXXXXXXXXXXXXXXXXX.",
".XXXXXXXXXXXXXXXXXXXXXXXXXXXXXXXXXXXXXXXXXXXXXXXXXXXXXXXX.",
".XXXXXXXXXXXXXXXXXXXXXXXXXXXXXXXXXXXXXXXXXXXXXXXXXXXXXXXX.",
".XXXXXXXXXXXXXXXXXXXXXXXXXXXXXXXXXXXXXXXXXXXXXXXXXXXXXXXX.",
".XXXXXXXXXXXXXXXXXXXXXXXXXXXXXXXXXXXXXXXXXXXXXXXXXXXXXXXX.",
".XXXXXXXXXXXXXXXXXXXXXXXXXXXXXXXXXXXXXXXXXXXXXXXXXXXXXXXX.",
".XXXXXXXXXXXXXXXXXXXXXXXXXXXXXXXXXXXXXXXXXXXXXXXXXXXXXXXX.",
".XXXXXXXXXXXXXXXXXXXXXXXXXXXXXXXXXXXXXXXXXXXXXXXXXXXXXXXX.",
".XXXXXXXXXXXXXXXXXXXXXXXXXXXXXXXXXXXXXXXXXXXXXXXXXXXXXXXX.",
".XXXXXXXXXXXXXXXXXXXXXXXXXXXXXXXXXXXXXXXXXXXXXXXXXXXXXXXX.",
".XXXXXXXXXXXXXXXXXXXXXXXXXXXXXXXXXXXXXXXXXXXXXXXXXXXXXXXX.",
".XXXXXXXXXXXXXXXXXXXXXXXXXXXXXXXXXXXXXXXXXXXXXXXXXXXXXXXX.",
".XXXXXXXXXXXXXXXXXXXXXXXXXXXXXXXXXXXXXXXXXXXXXXXXXXXXXXXX.",
"..XXXXXXXXXXXXXXXXXXXXXXXXXXXXXXXXXXXXXXXXXXXXXXXXXXXXXX..",
"  ..XXXXXXXXXXXXXXXXXXXXXXXXXXXXXXXXXXXXXXXXXXXXXXXXXX..  ",
"    ..XXXXXXXXXXXXXXXXXXXXXXXXXXXXXXXXXXXXXXXXXXXXXX..    ",
"      ..XXXXXXXXXXXXXXXXXXXXXXXXXXXXXXXXXXXXXXXXXX..      ",
"        ..XXXXXXXXXXXXXXXXXXXXXXXXXXXXXXXXXXXXXX..        ",
"          ..XXXXXXXXXXXXXXXXXXXXXXXXXXXXXXXXXX..          ",
"            ..XXXXXXXXXXXXXXXXXXXXXXXXXXXXXX..            ",
"              ..XXXXXXXXXXXXXXXXXXXXXXXXXX..              ",
"                ..XXXXXXXXXXXXXXXXXXXXXX..                ",
"                  ..XXXXXXXXXXXXXXXXXX..                  ",
"                    ..XXXXXXXXXXXXXX..                    ",
"                      ..XXXXXXXXXX..                      ",
"                        ..XXXXXX..                        ",
"                          ..XX..                          ",
"                            ..                            "
};
