/* XPM */
static char *result[] = {
/* columns rows colors chars-per-pixel */
"44 43 9 1 ",
"  c #134ECC",
". c #88A7E6",
"X c #A9CCEF",
"o c #AED1F4",
"O c #D7D4DE",
"+ c #D1C3E9",
"@ c #E3F1FB",
"# c white",
"$ c None",
/* pixels */
"$$$$$$$$$$$$$$$$$$$$$$$$$$$$$$$$$$$$$$$$$$$$",
"$$$$$$$$$$$$$$$$$$$$$$$$$$$$$$$$$$$$$$$$$$$$",
"$$$$$$$$$$$$$$$$$$$$$$$$$$$$$$$$$$$$$$$$$$$$",
"$$$$$$$$$$$$$$$$$$$$$$$$$$$$$$$$$$$$$$$$$$$$",
"$$$$$$$$$$$$$$$$$$$$$$$$$$$$$$$$$$$$$$$$$$$$",
"$$$$$$$$$$$$$$$$$$$$$$$$$$$$$$$$$$$$$$$$$$$$",
"$$$$$$$$$$$$$$$$$$$$$$$$$$$$$$$$$$$$$$$$$$$$",
"$$$$$$$$$$$$$$$$$$$$$$$$$$$$$$$$$$$$$$$$$$$$",
"$$$$$$$$$$$$$$$$$$$......$$$$$$$$$$$$$$$$$$$",
"$$$$$$$$$$$$$$$$$..........$$$$$$$$$$$$$$$$$",
"$$$$$$$$$$$$$$#..............#$$$$$$$$$$$$$$",
"$$$$$$$$$$$$@@................##$$$$$$$$$$$$",
"$$$$$$$$$$$@@@................###$$$$$$$$$$$",
"$$$$$$$$$@@@@@................  ###$$$$$$$$$",
"$$$$$$$$$@@@@@...............+   ##$$$$$$$$$",
"$$$$$$$$@@@@@...............+++    #$$$$$$$$",
"$$$$$$$$@@@@.....@@.........+++     $$$$$$$$",
"$$$$$$$$@@@.......@@@@@@@...++++    $$$$$$$$",
"$$$$$$$$X.........@@@@@@@..++.++   X$$$$$$$$",
"$$$$$$$$X.........@@@@@@@@@+..++   X$$$$$$$$",
"$$$$$$$$XXX........@@@@@@@@+..++  X@$$$$$$$$",
"$$$$$$$$$XXX.......@@@@@@@+....+XX@$$$$$$$$$",
"$$$$$$$$$XXXXX.....@@@@@@++.++XX@@@$$$$$$$$$",
"$$$$$$$$$$XXXXXXOX.@@@@@@+    @@@@$$$$$$$$$$",
"$$$$$$$$$$$XXXXXXX           @@@@$$$$$$$$$$$",
"$$$$$$$$$$$XXXXXXXXX       @@@@@@$$$$$$$$$$$",
"$$$$$$$$$$$$@@@@@  @o@@@  @@@@@@$$$$$$$$$$$$",
"$$$$$$$$$$$$$@@@   @ooo@@@ooooo$$$$$$$$$$$$$",
"$$$$$$$$$$$$$$@    @ooo@@@oooo$$$$$$$$$$$$$$",
"$$$$$$$$$$$$$$$    @ooo@@@ooo$$$$$$$$$$$$$$$",
"$$$$$$$$$$$$$$$$    @oo@@ooo$$$$$$$$$$$$$$$$",
"$$$$$$$$$$$$$$$$$   @oo@@oo$$$$$$$$$$$$$$$$$",
"$$$$$$$$$$$$$$$$$$  @@o@oo$$$$$$$$$$$$$$$$$$",
"$$$$$$$$$$$$$$$$$$$ @@@@o$$$$$$$$$$$$$$$$$$$",
"$$$$$$$$$$$$$$$$$$$$@@@o$$$$$$$$$$$$$$$$$$$$",
"$$$$$$$$$$$$$$$$$$$$$$$$$$$$$$$$$$$$$$$$$$$$",
"$$$$$$$$$$$$$$$$$$$$$$$$$$$$$$$$$$$$$$$$$$$$",
"$$$$$$$$$$$$$$$$$$$$$$$$$$$$$$$$$$$$$$$$$$$$",
"$$$$$$$$$$$$$$$$$$$$$$$$$$$$$$$$$$$$$$$$$$$$",
"$$$$$$$$$$$$$$$$$$$$$$$$$$$$$$$$$$$$$$$$$$$$",
"$$$$$$$$$$$$$$$$$$$$$$$$$$$$$$$$$$$$$$$$$$$$",
"$$$$$$$$$$$$$$$$$$$$$$$$$$$$$$$$$$$$$$$$$$$$",
"$$$$$$$$$$$$$$$$$$$$$$$$$$$$$$$$$$$$$$$$$$$$"
};
