/* XPM */
static char *_8b7ca62ce0140fdd92426264d75e4561BSigXpJZNRnrToA[] = {
/* columns rows colors chars-per-pixel */
"28 27 9 1 ",
"  c None",
". c #134ECC",
"X c #88A7E6",
"o c #A9CCEF",
"O c #AED1F4",
"+ c #D7D4DE",
"@ c #D1C3E9",
"# c #E3F1FB",
"$ c white",
/* pixels */
"           XXXXXX           ",
"         XXXXXXXXXX         ",
"      $XXXXXXXXXXXXXXO      ",
"    #XXXXXXXXXXXXXXXXOOO    ",
"   ##XXXXXXXXXXXXXXXXX$OO   ",
" ##XXXXXXXXXXXXXXXXXXX$$OOO ",
" XXXXXXXXXXXXXXXXXXXX@$$$$O ",
"#XXXXX###XXXXXXXXXXX@@@$$$$$",
"#XXXXX#####XXXXXXXXX@.@$$$$$",
"#XXXX###############@...$$$$",
"XXXXX##############@@...$$$o",
"oXXX###############@.......o",
"oooX###############@......o#",
" oooX########.####@.....oo# ",
" ooooo######....#@@...oo### ",
"  ooooo#+oX#..........####  ",
"   ooooOOOO......#...####   ",
"   ooooOOOOOO.#OOOO######   ",
"    OOOO###OOOOOO####..#    ",
"     OOOO.########OO...     ",
"      OOO#########OO..      ",
"       OOO########O..       ",
"        OO########O.        ",
"         OO######O.         ",
"          OO####O.          ",
"           O####..          ",
"            O##O            "
};
