/* XPM */
static char *result[] = {
/* columns rows colors chars-per-pixel */
"58 48 5 1 ",
"  c #646974",
". c #A8B2CC",
"X c #C3CEE3",
"o c #E0EAFB",
"O c None",
/* pixels */
"OOOOOOOOOOOOOOOOOOOOOOOOOOOOXXOOOOOOOOOOOOOOOOOOOOOOOOOOOO",
"OOOOOOOOOOOOOOOOOOOOOOOOOOXXXXXXOOOOOOOOOOOOOOOOOOOOOOOOOO",
"OOOOOOOOOOOOOOOOOOOOOOOOXXXXXXXXXXOOOOOOOOOOOOOOOOOOOOOOOO",
"OOOOOOOOOOOOOOOOOOOOOOXXXXXXXXXXXXXXOOOOOOOOOOOOOOOOOOOOOO",
"OOOOOOOOOOOOOOOOOOOOXXXXXXXXXXXXXX..XXOOOOOOOOOOOOOOOOOOOO",
"OOOOOOOOOOOOOOOOOOXXX....XXXXXXXX..XXXXXOOOOOOOOOOOOOOOOOO",
"OOOOOOOOOOOOOOOOXXXXXX....XXXX...XXXXXXXX.OOOOOOOOOOOOOOOO",
"OOOOOOOOOOOOOOXXXXXXXXXXX.....XXXXXXXX....XXOOOOOOOOOOOOOO",
"OOOOOOOOOOOOX.XXXXXXXXXXXXXXX..XXXXXX..XXXXXXXOOOOOOOOOOOO",
"OOOOOOOOOOXXX..XXXXXXXXXXXXXXX..XXXXXXXXXXXXXXXXOOOOOOOOOO",
"OOOOOOOOXXXXXX..XXXXXXXXXXXXXXX.XXXXXXXXXXXX......OOOOOOOO",
"OOOOOOXXXXXX...XXXXXXXXXXXX....XXXXXXXXXXXX..XX....XOOOOOO",
"OOOOXXXXXXXXXXXXXXXXXX.....XXXX.....XXXXX...XXXXXXXXXXOOOO",
"OOXXXXXXXXXXXXXXXXXXXXX.XXXXX....X..XXXXXX...XXXXXXXXXXXOO",
"  ooXXXXXXXXXXXXX....XXXXXXXX..XXXXXXXXXXXXX.....XXXXXoo  ",
" o  ooXXXXXXXXX...XXXXXXXXXXXX.XXXXXXXXXXXXXXXX...XXoo  o ",
" Xoo  ooXXXXXX..XXXXXXXXXXXXXX...XX..XXXXXXXXXXX..oo  oo. ",
" XXXoo  ooXXXX..XXXXXXXXXXXXXXXX....XXXXXXXXXX..oo  oo... ",
" XXXXXoo  ooXXXX...XXXXXXXXXXXXXXX.XXXXXXXXXXXoo  oo..... ",
" XXXXXXXoo  ooXXXXX..........XXXX..XXXXXXXXXoo  oo....... ",
" XXXXXXXXXoo  ooXXXXX.......XXXXX...XXXXXXoo  oo......... ",
" XXXXXXXXXXXoo  ooXXXX..XXXXXXXXXX...XXXoo  oo........... ",
" XXXXXXXXXXXXXoo  ooXXX.XXXXXXXXXXX...oo  oo............. ",
" XXXXXXXXXXXXXXXoo  oo..XXXXXXXXXXX.oo  oo............... ",
" XXXXXXXXXXXXXXXXXoo  ooXXXXXXXXXXoo  oo................. ",
" XXXXXXXXXXXXXXXXXXXoo  ooXXXXXXoo  oo................... ",
" XXXXXXXXXXXXXXXXXXXXXoo  ooXXoo  oo..................... ",
" XXXXXXXXXXXXXXXXXXXXXXXoo  oo  oo....................... ",
" XXXXXXXXXXXXXXXXXXXXXXXXXoo  oo......................... ",
" XXXXXXXXXXXXXXXXXXXXXXXXXXo  o.......................... ",
" XXXXXXXXXXXXXXXXXXXXXXXXXXo  o.......................... ",
" XXXXXXXXXXXXXXXXXXXXXXXXXXo  o.......................... ",
" XXXXXXXXXXXXXXXXXXXXXXXXXXo  o.......................... ",
"  XXXXXXXXXXXXXXXXXXXXXXXXXo  o.........................  ",
"OO  XXXXXXXXXXXXXXXXXXXXXXXo  o.......................  OO",
"OOOO  XXXXXXXXXXXXXXXXXXXXXo  o.....................  OOOO",
"OOOOOO  XXXXXXXXXXXXXXXXXXXo  o...................  OOOOOO",
"OOOOOOOO  XXXXXXXXXXXXXXXXXo  o.................  OOOOOOOO",
"OOOOOOOOOO  XXXXXXXXXXXXXXXo  o...............  OOOOOOOOOO",
"OOOOOOOOOOOO  XXXXXXXXXXXXXo  o.............  OOOOOOOOOOOO",
"OOOOOOOOOOOOOO  XXXXXXXXXXXo  o...........  OOOOOOOOOOOOOO",
"OOOOOOOOOOOOOOOO  XXXXXXXXXo  o.........  OOOOOOOOOOOOOOOO",
"OOOOOOOOOOOOOOOOOO  XXXXXXXo  o.......  OOOOOOOOOOOOOOOOOO",
"OOOOOOOOOOOOOOOOOOOO  XXXXXo  o.....  OOOOOOOOOOOOOOOOOOOO",
"OOOOOOOOOOOOOOOOOOOOOO  XXXo  o...  OOOOOOOOOOOOOOOOOOOOOO",
"OOOOOOOOOOOOOOOOOOOOOOOO  Xo  o.  OOOOOOOOOOOOOOOOOOOOOOOO",
"OOOOOOOOOOOOOOOOOOOOOOOOOO      OOOOOOOOOOOOOOOOOOOOOOOOOO",
"OOOOOOOOOOOOOOOOOOOOOOOOOOOO  OOOOOOOOOOOOOOOOOOOOOOOOOOOO"
};
