/* XPM */
static char *result[] = {
/* columns rows colors chars-per-pixel */
"54 80 5 1 ",
"  c #542437",
". c #832B2D",
"X c #8A4546",
"o c #C09D9E",
"O c None",
/* pixels */
"OOOOOOOOOOOOOOOOOOOOOOXXXXXXXXXXOOOOOOOOOOOOOOOOOOOOOO",
"OOOOOOOOOOOOOOOOOOOOXXXXXXXXXXXXXXOOOOOOOOOOOOOOOOOOOO",
"OOOOOOOOOOOOOOOOOOXXXXXXXXXXXXXXXXXXOOOOOOOOOOOOOOOOOO",
"OOOOOOOOOOOOOOOOXXXXXXXXXXXXXXXXXXXXXXOOOOOOOOOOOOOOOO",
"OOOOOOOOOOOOOOXXXXXXXXXXXXXXXXXXXXXXXXXXOOOOOOOOOOOOOO",
"OOOOOOOOOOOOXXXXXXXXXXXXXXXXXXXXXXXXXXXXXXOOOOOOOOOOOO",
"OOOOOOOOOOXXXXXXXXXXXXXXXXXXXXXXXXXXXXXXXXXXOOOOOOOOOO",
"OOOOOOOO....XXXXXXXXXXXXXXXXXXXXXXXXXXXXXXXXXXOOOOOOOO",
"OOOOOO.........XXXXXXXXXXXXXXXXXXXXXXXXXXX.....OOOOOOO",
"OOOO...     .....XXXXXXXXXXXXXXXXXXXXXX.........OOOOOO",
"OOO.  ......   ....XXXXXXXXXXXXXXXXXX.....      ..OOOO",
"OO. ...........  ....XXXXXXXXXXXXXX....           .OOO",
"O. ..............  ..................              .OO",
"...o............... ...............               o .O",
"...ooo.............. .............              ooo   ",
"...ooooo............. ...........             ooooo   ",
"...ooooooo............ .........            ooooooo   ",
".....ooooooo.......... .........          ooooooo     ",
".. ....ooooooo......... .......         ooooooo    .  ",
"..   ....ooooooo....... .......       ooooooo    ...  ",
".. ..  ....ooooooo...... .....      ooooooo    ..  .  ",
".. .. .  ....ooooooo.... .....    ooooooo    .. .  .  ",
".. .. ...  ....ooooooo... ...   ooooooo    ..   .  .  ",
".. .. .....  ....ooooooo. ... ooooooo    ..     .  .  ",
".. .. .......  ....ooooo. ... ooooo    ..       .  .  ",
".. .. .........  ....ooo.. .  ooo    ..         .  .  ",
".. .. ...........  ....o.. .  o    ..           .  .  ",
".. .. .............  ..... .     ..             .  .  ",
"..    ..............   ... .   ...              ....  ",
".. ..  ............. .. .. .  .  .             ..  .  ",
".. .. .  ........... .. .. .  .  .           .. .  .  ",
".. .. ...  ......... .. .. .  .  .         ..   .  .  ",
".. .. .....  ....... .. .. .  .  .       ..     .  .  ",
".. .. .......  ..... .. .. .  .  .     ..       .  .  ",
".. .. .........  ... .. .. .  .  .   ..         .  .  ",
".. .. ...........  . .. .. .  .  . ..           .  .  ",
".. .. .............  .. .. .  .  ..             .  .  ",
"..    ..............    .. .  ....              ....  ",
".. ..  ............. .. .. .  .  .             ..  .  ",
".. .. .  ........... .. .. .  .  .           .. .  .  ",
".. .. ...  ......... .. .. .  .  .         ..   .  .  ",
".. .. .....  ....... .. .. .  .  .       ..     .  .  ",
".. .. .......  ..... .. .. .  .  .     ..       .  .  ",
".. .. .........  ... .. .. .  .  .   ..         .  .  ",
".. .. ...........  . .. .. .  .  . ..           .  .  ",
".. .. .............  .. .. .  .  ..             .  .  ",
"..    ..............    .. .  ....              ....  ",
".. ..  ............. .. .. .  .  .             ..  .  ",
".. .. .  ........... .. .. .  .  .           .. .  .  ",
".. .. ...  ......... .. .. .  .  .         ..   .  .  ",
".. .. .....  ....... .. .. .  .  .       ..     .  .  ",
".. .. .......  ..... .. .. .  .  .     ..       .  .  ",
".. .. .........  ... .. .. .  .  .   ..         .  .  ",
".. .. ...........  . .. .. .  .  . ..           .  .  ",
".. .. .............  .. .. .  .  ..             .  .  ",
"..    ..............    .. .  ....              ....  ",
".. ..  ............. .. .. .  .  .             ..  .  ",
".. .. .  ........... .. .. .  .  .           .. .  .  ",
".. .. ...  ......... .. .. .  .  .         ..   .  .  ",
".. .. .....  ....... .. .. .  .  .       ..     .  .  ",
".. .. .......  ..... .. .. .  .  .     ..       .  .  ",
".. .. .........  ... .. .. .  .  .   ..         .  .  ",
".. .. ...........  . .. .. .  .  . ..           .  .  ",
".. .. .............  .. .. .  .  ..             .  .  ",
"...   ..............    .. .  ....              ...   ",
".....  ............. .. .. .  .  .             ..     ",
".......  ........... .. .. .  .  .           ..       ",
"OO.......  ......... .. .. .  .  .         ..       OO",
"OOOO.......  ....... .. .. .  .  .       ..       OOOO",
"OOOOOO.......  ..... .. .. .  .  .     ..       OOOOOO",
"OOOOOOOO.......  ... .. .. .  .  .   ..       OOOOOOOO",
"OOOOOOOOOO.......  . .. .. .  .  . ..       OOOOOOOOOO",
"OOOOOOOOOOOO.......  .. .. .  .  ..       OOOOOOOOOOOO",
"OOOOOOOOOOOOOO.......   .. .  ...       OOOOOOOOOOOOOO",
"OOOOOOOOOOOOOOOO....... .. .  .       OOOOOOOOOOOOOOOO",
"OOOOOOOOOOOOOOOOOO........ .        OOOOOOOOOOOOOOOOOO",
"OOOOOOOOOOOOOOOOOOOO...... .      OOOOOOOOOOOOOOOOOOOO",
"OOOOOOOOOOOOOOOOOOOOOO.... .    OOOOOOOOOOOOOOOOOOOOOO",
"OOOOOOOOOOOOOOOOOOOOOOOO....  OOOOOOOOOOOOOOOOOOOOOOOO",
"OOOOOOOOOOOOOOOOOOOOOOOOOO..OOOOOOOOOOOOOOOOOOOOOOOOOO"
};
