/* XPM */
static char *result[] = {
/* columns rows colors chars-per-pixel */
"40 60 164 2 ",
"   c #242628",
".  c #242629",
"X  c #2B2E2B",
"o  c #2B3330",
"O  c #2A3B35",
"+  c #2A403B",
"@  c #454239",
"#  c #464339",
"$  c #474339",
"%  c #47443A",
"&  c #49453A",
"*  c #4A473B",
"=  c #4C483B",
"-  c #4D493B",
";  c #4E4B3C",
":  c #514D3C",
">  c #524E3D",
",  c #524F3D",
"<  c #534F3D",
"1  c #54503D",
"2  c #153045",
"3  c #1E4E4F",
"4  c #1F5051",
"5  c #1C5355",
"6  c #1C5A59",
"7  c #1A5F5F",
"8  c #264641",
"9  c #224647",
"0  c #264944",
"q  c #284C45",
"w  c #24514B",
"e  c #3F564C",
"r  c #205552",
"t  c #245F54",
"y  c #3D5A51",
"u  c #3D5B51",
"i  c #22655B",
"p  c #216A5F",
"a  c #226E5F",
"s  c #3B6157",
"d  c #38695E",
"f  c #3E6B5C",
"g  c #1A6462",
"h  c #196F6C",
"j  c #19746F",
"k  c #1A746E",
"l  c #1C7F71",
"z  c #187975",
"x  c #187E7A",
"c  c #376F65",
"v  c #207465",
"b  c #207A68",
"n  c #397266",
"m  c #357268",
"M  c #34796F",
"N  c #3D7C68",
"B  c #327E73",
"V  c #425E4E",
"C  c #515440",
"Z  c #484A54",
"A  c #4E614B",
"S  c #496951",
"D  c #4C6951",
"F  c #4C6C52",
"G  c #4A6E57",
"H  c #585A6C",
"J  c #585B6C",
"K  c #417962",
"L  c #447F64",
"P  c #5D7068",
"I  c #59796F",
"U  c #6A6D73",
"Y  c #6A6E72",
"T  c #6A6E73",
"R  c #697477",
"E  c #657B7B",
"W  c #637D7D",
"Q  c #A53D31",
"!  c #90512B",
"~  c #A14338",
"^  c #CC5152",
"/  c #CB5555",
"(  c #CA5959",
")  c #CB7F4A",
"_  c #C9615D",
"`  c #DF725B",
"'  c #E16C57",
"]  c #C86663",
"[  c #C76C66",
"{  c #C6726B",
"}  c #1E8773",
"|  c #1E8C77",
" . c #18817B",
".. c #1D947D",
"X. c #20816F",
"o. c #2F887E",
"O. c #308378",
"+. c #548177",
"@. c #6D8C79",
"#. c #9C876B",
"$. c #928F6D",
"%. c #929274",
"&. c #909878",
"*. c #B8A36E",
"=. c #C98751",
"-. c #C88C55",
";. c #C7925C",
":. c #D88B6F",
">. c #C09E66",
",. c #D49678",
"<. c #D29E7F",
"1. c #CDB16A",
"2. c #CCB26C",
"3. c #CCB66F",
"4. c #CBB670",
"5. c #168580",
"6. c #189184",
"7. c #1D9A83",
"8. c #2D8C82",
"9. c #2B9187",
"0. c #3D949B",
"q. c #1AA189",
"w. c #19A990",
"e. c #45858E",
"r. c #5F8985",
"t. c #428C95",
"y. c #619D8A",
"u. c #85AB81",
"i. c #9AA799",
"p. c #8BB2A4",
"a. c #8CB3A5",
"s. c #85B7A8",
"d. c #9BB7A2",
"f. c #CFA98A",
"g. c #CBB693",
"h. c #C7BC97",
"j. c #BCC7A3",
"k. c #BDD1A7",
"l. c #C4C49D",
"z. c #D6CD9B",
"x. c #D9CFAF",
"c. c #D9CFB1",
"v. c #D6D0B5",
"b. c #D3D1B9",
"n. c #D4D1B9",
"m. c #D3D1BC",
"M. c #ADD8DC",
"N. c #B5D8D9",
"B. c #D2D2CC",
"V. c #DDD7CF",
"C. c #C0D7D6",
"Z. c #CAD6D3",
"A. c #DAD8D2",
"S. c #DAD7E4",
"D. c #D9D8E5",
"F. c #D9D9E8",
"G. c #E9EAFD",
"H. c #E8E9FE",
"J. c #F1F1FF",
"K. c #F5F7FF",
"L. c #FFF1FF",
"P. c #FFFAFF",
"I. c white",
"U. c None",
/* pixels */
"U.U.U.U.U.U.U.U.U.U.U.U.U.2 4 p X...q.G.G.G.U.U.U.U.U.U.U.U.U.U.U.U.U.U.U.U.U.U.",
"U.U.U.U.U.U.U.U.U.U.U.U.U.0 w t b } 7.w.G.G.G.U.U.U.U.U.U.U.U.U.U.U.U.U.U.U.U.U.",
"U.U.U.U.U.U.U.U.U.U.U.U.U.+ q t a b ..q.w.G.G.G.U.U.U.U.U.U.U.U.U.U.U.U.U.U.U.U.",
"U.U.U.U.U.U.U.U.U.U.U.U.U.+ q w t b X.7.w.G.G.G.U.U.U.U.U.U.U.U.U.U.U.U.U.U.U.U.",
"U.U.U.U.U.U.U.U.U.U.U.U.U.` + q w t b | q.G.G.U.U.U.U.U.U.U.U.U.U.U.U.U.U.U.U.U.",
"U.U.U.U.U.U.U.U.U.U.U.U.' ' ` + q t a b ..G.G.U.U.U.U.U.U.U.U.U.U.U.U.U.U.U.U.U.",
"U.U.U.U.U.U.U.U.U.U.U.U.o ' O :.q w a b } G.P.U.U.U.U.U.U.U.U.U.U.U.U.U.U.U.U.U.",
"U.U.U.U.U.U.U.U.U.U.U.X X o o O :.,.<.f.g.P.G.G.G.U.U.U.U.U.U.U.U.U.U.U.U.U.U.U.",
"U.U.U.U.U.U.U.U.U.U.X X X X o o + q q t a X.G.G.G.G.U.U.U.U.U.U.U.U.U.U.U.U.U.U.",
"U.U.U.U.U.U.U.U.U.U.U.X X X ) =.O + q w t a b } G.G.U.U.U.U.U.U.U.U.U.U.U.U.U.U.",
"U.U.U.U.U.U.U.U.U.h.U.h.#.X X X =.O + q w *.a a U.U.U.U.U.U.U.U.U.U.U.U.U.U.U.U.",
"U.U.U.U.U.U.U.U.) ) ! ! #.) x.x.x.x.-.;.m.m.>.>.U.U.U.U.U.U.U.U.U.U.U.U.U.U.U.U.",
"U.U.U.U.U.U.U.U.) ! ) ! z.1 1 1 C 1 x.n.A F F >.>.U.U.U.U.U.U.U.U.U.U.U.U.U.U.U.",
"U.U.U.U.U.U.U.U.) ! ) ) z.) 1 V.A.Q C x.A.~ &.;.;.U.U.U.U.U.U.U.U.U.U.U.U.U.U.U.",
"U.U.U.U.U.U.U.U.) ! ! ) ) _ x.x.V.Q x.x.c.Q l.%.-.U.U.U.U.U.U.U.U.U.U.U.U.U.U.U.",
"U.U.U.U.U.U.U.U.U.) ) ! U.&.x.x.x.x.x.x.c.c.x.%.U.-.U.U.U.U.U.U.U.U.U.U.U.U.U.U.",
"U.U.U.U.U.U.U.U.U.U.#.) U.u.z.x.1.x.x.x.c.c.c.U.U.=.U.U.U.U.U.U.U.U.U.U.U.U.U.U.",
"U.U.U.U.U.U.U.U.U.) ) ! U.U.<.x.x.1.2.x.c.c.U.U.U.=.U.U.U.U.U.U.U.U.U.U.U.U.U.U.",
"U.U.U.U.U.U.U.U.) ) U.U.U.U.1.1.x.x.x.x.c.U.U.U.=.U.U.U.U.U.U.U.U.U.U.U.U.U.U.U.",
"U.U.U.U.U.U.U.U.) ) U.U.U.U.1.1.2.2.x.U.U.U.U.U.=.U.U.U.U.U.U.U.U.U.U.U.U.U.U.U.",
"U.U.U.U.U.U.U.U.U.U.) U.X X X 2.2.2.o U.U.U.U.U.U.U.U.U.U.U.U.U.U.U.U.U.U.U.U.U.",
"U.U.U.U.U.U.U.^ ^ ^ X X X X X X o o o O _ ] ] [ [ U.U.U.U.U.U.U.U.U.2.U.U.U.U.U.",
"U.U.U.U.U.U.U.U.^ ^ X X X X X X D.D.D.O _ ] [ L.U.U.U.U.U.U.U.U.3.3.3.U.U.U.U.U.",
"U.U.U.U.U.U.U.U.^ ^ ^ X X X S.S.D.D.D.+ ] ] [ G.U.U.U.U.U.U.U.v.v.4.U.U.U.U.U.U.",
"U.U.U.U.U.U.U.U.^ ^ ^ X X S.S.^ D.D.F.+ ] [ { H.H.U.U.U.U.U.n.v.n.v.v.j.n.U.U.U.",
"U.U.U.U.U.U.U.U.U.^ ^ X X ^ ^ ^ / ( F.+ ] [ w H.H.U.U.U.U.U.9 8 + U.U.m.b.U.U.U.",
"U.U.U.U.U.U.U.U.U.^ ^ X ^ ^ ^ ^ / / ( O ] [ w r H.H.U.U.U.w 9 8 8 U.U.U.d.k.U.U.",
"U.U.U.U.U.U.U.U.Z Z Z X ^ ^ ^ ^ / ( ( O ] [ 9 r H.H.U.U.U.9 9 9 U.U.U.U.a.U.U.U.",
"U.U.U.U.U.U.U.U.Z Z Z X ^ ^ ^ ^ ^ / ( O + U.U.r r H.U.U.H.w 9 U.U.U.U.U.s.N.U.U.",
"U.U.U.U.U.U.U.U.Z Z Z X Y Y ^ ^ / / R O + U.U.w r r r r r 9 9 U.U.U.U.U.U.y.U.U.",
"U.U.U.U.U.U.U.Z Z Z X X Y Y T Y T R R O + U.U.U.r r r r r 9 9 U.U.U.U.U.s.M.U.U.",
"U.U.U.U.U.U.U.Z Z Z X Y Y Y T T T T R O + U.U.U.U.r r r r r U.U.U.U.U.U.s.U.U.U.",
"U.U.U.U.U.U.U.Z Z X X Y Y Y Y X T T E + + + U.U.U.t i r r r U.U.U.U.U.U.s.N.U.U.",
"U.U.U.U.U.U.U.Z Z X X Y Y Y X Y X T T E + q q U.U.U.i i i U.U.U.U.U.U.U.U.y.U.U.",
"U.U.U.U.U.U.U.Z Z X X Y Y Y Y X T T T E + q w U.U.U.U.v U.U.U.U.U.U.U.U.+.s.I.U.",
"U.U.U.U.U.U.Z Z Z X X Y Y Y X Y o T E E q q t t U.U.U.U.U.U.U.U.U.U.U.I C.C.N.I.",
"U.U.U.U.U.U.Z Z X X Y T Y Y 1 1 1 T R W q w t a U.U.U.U.U.U.U.U.U.U.U.p.Z.@.C.+.",
"U.U.U.U.U.U.Z Z X X Y T 1 1 1 1 C C E W q t t v G.U.U.U.U.U.U.U.U.U.U.i.Z.Z.@.I ",
"U.U.U.U.U.$.$.Z X Y 1 1 1 1 1 1 C C C A r.t i X.G.G.U.U.U.U.U.U.U.U.U.U.i.P P U.",
"U.U.U.U.F.F.$.X X Y 1 1 1 1 1 1 C C A A F t a X.G.G.U.U.U.U.U.U.U.U.U.U.U.U.U.U.",
"U.U.F.F.F.B.#.X X 1 1 1 1 1 1 1 C C A D G t v } G.G.G.U.U.U.U.U.U.U.U.U.U.U.U.U.",
"U.F.F.B.B.U.o X 1 1 1 1 1 1 1 U.C C C D G L v } G.G.G.U.U.U.U.U.U.U.U.U.U.U.U.U.",
"B.B.B.U.U.o X X 1 1 1 1 1 U.U.U.1 C A A G L v l 6.G.U.U.U.U.U.U.U.U.U.U.U.U.U.U.",
"U.U.U.U.U.X X X 1 1 1 1 1 U.U.U.U.U.C A G L N k  .G.U.U.U.U.U.U.U.U.U.U.U.U.U.U.",
"U.U.U.U.o X X X 1 1 1 1 U.U.U.U.U.U.U.A F K n g x U.U.U.U.U.U.U.U.U.U.U.U.U.U.U.",
"U.U.U.o o o X X 1 1 1 1 U.U.U.U.U.U.U.A S f d B z U.U.U.U.U.U.U.U.U.U.U.U.U.U.U.",
"U.U.U.X X R X U.1 1 1 1 U.U.U.U.U.U.U.U.V u d B j G.U.U.U.U.U.U.U.U.U.U.U.U.U.U.",
"U.U.U.U.u.U.X U.1 1 < : U.U.U.U.U.U.U.U.e y d M O.5.G.U.U.U.U.U.U.U.U.U.U.U.U.U.",
"U.U.U.U.U.U.U.1 , ; * % U.U.U.U.U.U.U.U.U.U.d m B 8.G.G.U.U.U.U.U.U.U.U.U.U.U.U.",
"U.U.U.U.U.U.U.> = % # @ U.U.U.U.U.U.U.U.U.U.s c B o.J.U.U.U.U.U.U.U.U.U.U.U.U.U.",
"U.U.U.U.U.U.U.& # @ @ U.U.U.U.U.U.U.U.U.U.U.U.d M o.J.U.U.U.U.U.U.U.U.U.U.U.U.U.",
"U.U.U.U.U.- $ @ @ @ @ U.U.U.U.U.U.U.U.U.U.U.U.U.h O.e.J.U.U.U.U.U.U.U.U.U.U.U.U.",
"U.U.U.U.U.% @ @ @ @ U.U.U.U.U.U.U.U.U.U.U.U.U.U.c B 8.J.U.U.U.U.U.U.U.U.U.U.U.U.",
"U.U.U.U.U.@ @ @ @ U.U.U.U.U.U.U.U.U.U.U.U.U.U.U.U.M 8.J.U.U.U.U.U.U.U.U.U.U.U.U.",
"U.U.U.U.% @ @ @ @ U.U.U.U.U.U.U.U.U.U.U.U.U.U.U.U.M O.9.J.U.U.U.U.U.U.U.U.U.U.U.",
"U.U.U.U.# @ @ @ U.U.U.U.U.U.U.U.U.U.U.U.U.U.U.U.U.c B 8.J.U.U.U.U.U.U.U.U.U.U.U.",
"U.U.U.U.@ @ @ @ U.U.U.U.U.U.U.U.U.U.U.U.U.U.U.U.U.d M o.J.J.U.U.U.U.U.U.U.U.U.U.",
"U.U.U.U.@     U.U.U.U.U.U.U.U.U.U.U.U.U.U.U.U.U.U.d 7 B 8.J.U.U.U.U.U.U.U.U.U.U.",
"U.U.U .       U.U.U.U.U.U.U.U.U.U.U.U.U.U.U.U.U.U.U.5 g h G.U.U.U.U.U.U.U.U.U.U.",
"U.U.U J H H   U.U.U.U.U.U.U.U.U.U.U.U.U.U.U.U.U.U.U.3 6 t.0.K.U.U.U.U.U.U.U.U.U."
};
