/* XPM */
static char *result[] = {
/* columns rows colors chars-per-pixel */
"40 60 159 2 ",
"   c #242628",
".  c #242629",
"X  c #2B2E2B",
"o  c #2B3330",
"O  c #2A3B35",
"+  c #2A403B",
"@  c #454239",
"#  c #464339",
"$  c #474339",
"%  c #47443A",
"&  c #49453A",
"*  c #4A473B",
"=  c #4C483B",
"-  c #4D493B",
";  c #4E4B3C",
":  c #514D3C",
">  c #524E3D",
",  c #524F3D",
"<  c #534F3D",
"1  c #54503D",
"2  c #1E4E4F",
"3  c #1C5355",
"4  c #1C5A59",
"5  c #264641",
"6  c #224647",
"7  c #284C45",
"8  c #234E4B",
"9  c #24514B",
"0  c #3F564C",
"q  c #205552",
"w  c #245F54",
"e  c #3D5A51",
"r  c #22655B",
"t  c #226E5F",
"y  c #3B6157",
"u  c #3C6258",
"i  c #3F6859",
"p  c #38695E",
"a  c #1A6462",
"s  c #1A6A68",
"d  c #196F6C",
"f  c #19746F",
"g  c #1A746E",
"h  c #1C7F71",
"j  c #187975",
"k  c #376F65",
"l  c #207465",
"z  c #207A68",
"x  c #397266",
"c  c #357268",
"v  c #34796F",
"b  c #3B7F6C",
"n  c #327E73",
"m  c #425A4D",
"M  c #515440",
"N  c #484A54",
"B  c #4E614B",
"V  c #496951",
"C  c #4C6951",
"Z  c #4C6C52",
"A  c #4A6E57",
"S  c #585A6B",
"D  c #585B6C",
"F  c #417962",
"G  c #447F64",
"H  c #5D7068",
"J  c #59796F",
"K  c #6A6D73",
"L  c #6A6E72",
"P  c #6A6E73",
"I  c #697477",
"U  c #657B7B",
"Y  c #A53D31",
"T  c #90512B",
"R  c #A14338",
"E  c #CC5152",
"W  c #CB5555",
"Q  c #CA5959",
"!  c #CB7F4A",
"~  c #C9615D",
"^  c #DF725B",
"/  c #E16C57",
"(  c #C86663",
")  c #C76C66",
"_  c #C6726B",
"`  c #1E8773",
"'  c #1E8C77",
"]  c #18817B",
"[  c #1A8B7F",
"{  c #1D947D",
"}  c #20816F",
"|  c #2F887E",
" . c #548177",
".. c #6D8C79",
"X. c #9C876B",
"o. c #928F6D",
"O. c #929274",
"+. c #909878",
"@. c #B8A36E",
"#. c #C98751",
"$. c #C88C55",
"%. c #C7925C",
"&. c #D88B6F",
"*. c #C09E66",
"=. c #D49678",
"-. c #D29E7F",
";. c #CDB16A",
":. c #CCB26C",
">. c #CCB66F",
",. c #CBB670",
"<. c #168580",
"1. c #1D9A83",
"2. c #2D8C82",
"3. c #2B9187",
"4. c #3D949B",
"5. c #1AA189",
"6. c #19A990",
"7. c #5F8985",
"8. c #428C95",
"9. c #778787",
"0. c #619C89",
"q. c #9AA799",
"w. c #93AE9F",
"e. c #8BB2A4",
"r. c #85B7A8",
"t. c #CFA98A",
"y. c #CBB693",
"u. c #C7BC97",
"i. c #BCC7A3",
"p. c #BBD1A6",
"a. c #C4C49D",
"s. c #D6CD9B",
"d. c #D9CFAF",
"f. c #D9CFB1",
"g. c #D3D1B3",
"h. c #D6D0B5",
"j. c #D4D1B7",
"k. c #D3D1B8",
"l. c #D4D1B9",
"z. c #D3D1BC",
"x. c #ADD8DB",
"c. c #B5D8D9",
"v. c #D2D2CC",
"b. c #DDD7CF",
"n. c #C0D7D6",
"m. c #CAD6D3",
"M. c #DAD8D2",
"N. c #DAD7E4",
"B. c #D9D8E5",
"V. c #D8D8E6",
"C. c #D9D9E8",
"Z. c #E9EAFD",
"A. c #E8E9FE",
"S. c #F1F1FF",
"D. c #F5F7FF",
"F. c #FFF1FF",
"G. c #FFFAFF",
"H. c white",
"J. c None",
/* pixels */
"J.J.J.J.J.J.J.J.J.J.J.J.J.J.J.J.J.J.J.J.J.J.J.J.J.J.J.J.J.J.J.J.J.J.J.J.J.J.J.J.",
"J.J.J.J.J.J.J.J.J.J.J.J.J.8 w t } { 5.Z.Z.Z.J.J.J.J.J.J.J.J.J.J.J.J.J.J.J.J.J.J.",
"J.J.J.J.J.J.J.J.J.J.J.J.J.7 9 w z ` 1.6.Z.Z.Z.J.J.J.J.J.J.J.J.J.J.J.J.J.J.J.J.J.",
"J.J.J.J.J.J.J.J.J.J.J.J.J.+ 7 w t z { 5.6.Z.Z.Z.J.J.J.J.J.J.J.J.J.J.J.J.J.J.J.J.",
"J.J.J.J.J.J.J.J.J.J.J.J.J.+ 7 9 w z } 1.6.Z.Z.Z.J.J.J.J.J.J.J.J.J.J.J.J.J.J.J.J.",
"J.J.J.J.J.J.J.J.J.J.J.J.J.^ + 7 9 r z ' 1.Z.Z.J.J.J.J.J.J.J.J.J.J.J.J.J.J.J.J.J.",
"J.J.J.J.J.J.J.J.J.J.J.J./ / ^ + 7 w z z { Z.Z.J.J.J.J.J.J.J.J.J.J.J.J.J.J.J.J.J.",
"J.J.J.J.J.J.J.J.J.J.J.J.o / O &.7 7 r z ' Z.G.J.J.J.J.J.J.J.J.J.J.J.J.J.J.J.J.J.",
"J.J.J.J.J.J.J.J.J.J.J.X X o o O &.=.-.t.y.G.Z.Z.Z.J.J.J.J.J.J.J.J.J.J.J.J.J.J.J.",
"J.J.J.J.J.J.J.J.J.J.X X X X o o + 7 7 w t } Z.Z.Z.Z.J.J.J.J.J.J.J.J.J.J.J.J.J.J.",
"J.J.J.J.J.J.J.J.J.J.J.X X X ! #.O + 7 9 w t z ` Z.Z.J.J.J.J.J.J.J.J.J.J.J.J.J.J.",
"J.J.J.J.J.J.J.J.J.u.J.u.X.X X X #.O + 7 9 @.t t J.J.J.J.J.J.J.J.J.J.J.J.J.J.J.J.",
"J.J.J.J.J.J.J.J.! ! T T X.! d.d.d.d.$.%.z.z.*.*.J.J.J.J.J.J.J.J.J.J.J.J.J.J.J.J.",
"J.J.J.J.J.J.J.J.! T ! T s.1 1 1 M 1 d.l.B Z Z *.*.J.J.J.J.J.J.J.J.J.J.J.J.J.J.J.",
"J.J.J.J.J.J.J.J.! T ! ! s.! 1 b.M.Y M d.M.R +.%.%.J.J.J.J.J.J.J.J.J.J.J.J.J.J.J.",
"J.J.J.J.J.J.J.J.! T T ! ! ~ d.d.b.Y d.d.f.Y a.O.$.J.J.J.J.J.J.J.J.J.J.J.J.J.J.J.",
"J.J.J.J.J.J.J.J.J.! ! T J.+.d.d.d.d.d.d.f.f.d.O.J.$.J.J.J.J.J.J.J.J.J.J.J.J.J.J.",
"J.J.J.J.J.J.J.J.J.J.X.! J.9.d.d.;.d.d.d.f.f.f.J.J.#.J.J.J.J.J.J.J.J.J.J.J.J.J.J.",
"J.J.J.J.J.J.J.J.J.! ! T J.J.;.d.d.;.:.d.f.f.J.J.J.#.J.J.J.J.J.J.J.J.J.J.J.J.J.J.",
"J.J.J.J.J.J.J.J.! ! J.J.J.J.-.;.d.d.d.d.f.J.J.J.#.J.J.J.J.J.J.J.J.J.J.J.J.J.J.J.",
"J.J.J.J.J.J.J.J.! ! J.J.J.J.;.;.:.:.d.J.J.J.J.J.#.J.J.J.J.J.J.J.J.J.J.J.J.J.J.J.",
"J.J.J.J.J.J.J.J.J.J.! J.X X X :.:.:.o J.J.J.J.J.J.J.J.J.J.J.J.J.J.J.J.J.J.J.J.J.",
"J.J.J.J.J.J.J.E E E X X X X X X o o o O ~ ( ( ) ) J.J.J.J.J.J.J.J.J.:.J.J.J.J.J.",
"J.J.J.J.J.J.J.J.E E X X X X X X B.B.B.O ~ ( ) F.J.J.J.J.J.J.J.J.>.>.>.J.J.J.J.J.",
"J.J.J.J.J.J.J.J.E E E X X X N.N.B.B.B.+ ( ( ) Z.J.J.J.J.J.J.J.h.h.,.J.J.J.J.J.J.",
"J.J.J.J.J.J.J.J.E E E X X N.N.E B.V.V.+ ( ) _ A.A.J.J.J.J.J.l.h.l.h.h.i.j.J.J.J.",
"J.J.J.J.J.J.J.J.J.E E X X E E E W Q V.+ ( ) 9 A.A.J.J.J.J.J.6 5 + J.J.k.g.J.J.J.",
"J.J.J.J.J.J.J.J.J.E E X E E E E W W Q O ( ) 9 q A.A.J.J.J.9 6 5 5 J.J.J.w.p.J.J.",
"J.J.J.J.J.J.J.J.N N N X E E E E E Q Q O ( ) 6 q A.A.J.J.J.6 6 6 J.J.J.J.e.J.J.J.",
"J.J.J.J.J.J.J.J.N N N X E E E E W W Q O + J.J.q q A.J.J.A.9 6 J.J.J.J.J.r.c.J.J.",
"J.J.J.J.J.J.J.J.N N N X L L E E W W I O + J.J.9 q q q q q 6 6 J.J.J.J.J.r.x.J.J.",
"J.J.J.J.J.J.J.N N N X X L L L L P I I O + J.J.J.q q q q q 6 6 J.J.J.J.J.r.J.J.J.",
"J.J.J.J.J.J.J.N N N X L L L L P P I I O + J.J.J.J.q q q q q J.J.J.J.J.J.r.x.J.J.",
"J.J.J.J.J.J.J.N N X X P P L L X P I I O + 5 J.J.J.w r q q q J.J.J.J.J.J.c.x.J.J.",
"J.J.J.J.J.J.J.N N X X P P P X L X I P U + 5 7 J.J.J.r t r J.J.J.J.J.J.J.J.0.J.J.",
"J.J.J.J.J.J.J.N N X X P L L L X P I I U + 7 9 J.J.J.J.l J.J.J.J.J.J.J.J. .r.H.J.",
"J.J.J.J.J.J.N N N X X P L L X L X I I U 5 7 w w J.J.J.J.J.J.J.J.J.J.J.J n.n.c.H.",
"J.J.J.J.J.J.N N X X L L L L 1 1 1 P U U 7 9 w l J.J.J.J.J.J.J.J.J.J.J.e.m...n. .",
"J.J.J.J.J.J.N N X X L P 1 1 1 1 M M U U 7 9 r l Z.J.J.J.J.J.J.J.J.J.J.q.m.m...J ",
"J.J.J.J.J.o.o.N X L 1 1 1 1 1 1 1 M B B 7.w t l Z.Z.J.J.J.J.J.J.J.J.J.J.q.H H J.",
"J.J.J.J.C.C.o.X X L 1 1 1 1 1 1 1 M B B Z w l } Z.Z.J.J.J.J.J.J.J.J.J.J.J.J.J.J.",
"J.C.C.C.C.v.o.X X 1 1 1 1 1 1 1 M M B C A w l } Z.Z.Z.J.J.J.J.J.J.J.J.J.J.J.J.J.",
"v.v.v.J.J.X X X 1 1 1 1 1 J.J.J.1 M M B A G l h [ Z.J.J.J.J.J.J.J.J.J.J.J.J.J.J.",
"J.J.J.J.J.X X X 1 1 1 1 1 J.J.J.J.J.B B Z G b g ] Z.J.J.J.J.J.J.J.J.J.J.J.J.J.J.",
"J.J.J.J.X X X X 1 1 1 1 J.J.J.J.J.J.J.B Z F x s j J.J.J.J.J.J.J.J.J.J.J.J.J.J.J.",
"J.J.J.X X X X X 1 1 1 1 J.J.J.J.J.J.J.B V i k v j J.J.J.J.J.J.J.J.J.J.J.J.J.J.J.",
"J.J.J.X X 9.X J.1 1 1 1 J.J.J.J.J.J.J.J.m u p v f Z.J.J.J.J.J.J.J.J.J.J.J.J.J.J.",
"J.J.J.J.9.J.X J.1 1 < : J.J.J.J.J.J.J.J.0 e p c | <.Z.J.J.J.J.J.J.J.J.J.J.J.J.J.",
"J.J.J.J.J.J.J.1 , ; * % J.J.J.J.J.J.J.J.J.J.p k n 2.Z.Z.J.J.J.J.J.J.J.J.J.J.J.J.",
"J.J.J.J.J.J.J.> = % # @ J.J.J.J.J.J.J.J.J.J.y c v 2.S.J.J.J.J.J.J.J.J.J.J.J.J.J.",
"J.J.J.J.J.J.J.& # @ @ J.J.J.J.J.J.J.J.J.J.J.J.p v | S.J.J.J.J.J.J.J.J.J.J.J.J.J.",
"J.J.J.J.J.- $ @ @ @ @ J.J.J.J.J.J.J.J.J.J.J.J.J.c | 3.S.J.J.J.J.J.J.J.J.J.J.J.J.",
"J.J.J.J.J.% @ @ @ @ J.J.J.J.J.J.J.J.J.J.J.J.J.J.k n 2.S.J.J.J.J.J.J.J.J.J.J.J.J.",
"J.J.J.J.J.@ @ @ @ J.J.J.J.J.J.J.J.J.J.J.J.J.J.J.J.v | S.J.J.J.J.J.J.J.J.J.J.J.J.",
"J.J.J.J.% @ @ @ @ J.J.J.J.J.J.J.J.J.J.J.J.J.J.J.J.v | 3.S.J.J.J.J.J.J.J.J.J.J.J.",
"J.J.J.J.# @ @ @ J.J.J.J.J.J.J.J.J.J.J.J.J.J.J.J.J.k n 2.S.J.J.J.J.J.J.J.J.J.J.J.",
"J.J.J.J.@ @ @ @ J.J.J.J.J.J.J.J.J.J.J.J.J.J.J.J.J.p v | S.S.J.J.J.J.J.J.J.J.J.J.",
"J.J.J.J.@     J.J.J.J.J.J.J.J.J.J.J.J.J.J.J.J.J.J.p 4 n 2.S.J.J.J.J.J.J.J.J.J.J.",
"J.J.K .       J.J.J.J.J.J.J.J.J.J.J.J.J.J.J.J.J.J.J.3 a d Z.J.J.J.J.J.J.J.J.J.J.",
"J.J.K D S S   J.J.J.J.J.J.J.J.J.J.J.J.J.J.J.J.J.J.J.2 4 8.4.D.J.J.J.J.J.J.J.J.J."
};
