/* XPM */
static char *result[] = {
/* columns rows colors chars-per-pixel */
"58 48 8 1 ",
"  c #292931",
". c #4D4D5D",
"X c #5A5A78",
"o c #67677B",
"O c #72767D",
"+ c #9293BC",
"@ c #DFE5F1",
"# c None",
/* pixels */
"############################..############################",
"##########################......##########################",
"########################..........########################",
"######################..............######################",
"####################..............XX..####################",
"##################...X++X........XX.....##################",
"################......XXXX....XXX........X################",
"##############@X.........XXX+X........XXXX..##############",
"############.X@X.............XX......XX.......############",
"##########...XXX..............XX................##########",
"########......XX...............X............XXXXXX########",
"######......XXX............XXXX............XX..XXXX.######",
"####.......X..........XX+XX....XXXXX.....XXX..........####",
"##++......X............X.....XXXX.XX......XXX.........++##",
"  OO++...XX......XXXX........X+.............XXXXX...++OO  ",
" oooOO++.XX....XXX............X................XXX++OO... ",
" oooooOO++X...XX..............XXX..XX...........++OO..... ",
" oooooooOO++..XX................X+XX..........++OO....... ",
" oooooooooOO++..XXX...............X.........++O.......... ",
" oooooooooooOO++...XX++XXXXXX....XX.......++O............ ",
" oooooooooooooOO++...XX+XXXX.....XX+....++OO............. ",
" oooooooooooooooOO++..XX..........X+X.++OO............... ",
" oooooooooooooooooOO++@X...........X++OO................. ",
" oooooooooooooooooooOO++..........++OO................... ",
" oooooooooooooooooooooOO++......++OO..................... ",
" oooooooooooooooooooooooOO++..++OO....................... ",
" oooooooooooooooooooooooooOO++OO......................... ",
" ooooooooooooooooooooooooooo+............................ ",
" ooooooooooooooooooooooooooo+............................ ",
" ooooooooooooooooooooooooooo+............................ ",
" ooooooooooooooooooooooooooo+............................ ",
" ooooooooooooooooooooooooooo+............................ ",
" ooooooooooooooooooooooooooo+............................ ",
"  oooooooooooooooooooooooooo+...........................  ",
"##  oooooooooooooooooooooooo+.........................  ##",
"####  oooooooooooooooooooooo+.......................  ####",
"######  oooooooooooooooooooo+.....................  ######",
"########  oooooooooooooooooo+...................  ########",
"##########  oooooooooooooooo+.................  ##########",
"############  oooooooooooooo+...............  ############",
"##############  oooooooooooo+.............  ##############",
"################  oooooooooo+...........  ################",
"##################  oooooooo+.........  ##################",
"####################  oooooo+.......  ####################",
"######################  oooo+.....  ######################",
"########################  oo+...  ########################",
"##########################  +.  ##########################",
"############################  ############################"
};
