/* XPM */
static char *_ef48badd6b8452393d718cf3c535999V7Gi6y3dvJalbANR[] = {
/* columns rows colors chars-per-pixel */
"58 59 17 1 ",
"  c None",
". c #4B2A25",
"X c #502622",
"o c #5B2C27",
"O c #623B3C",
"+ c #694935",
"@ c #784849",
"# c #795742",
"$ c #895355",
"% c #8D6A54",
"& c #A07F70",
"* c #97805F",
"= c #C2A77F",
"- c #B89689",
"; c #DFCEAF",
": c #D2D0AE",
"> c #FCEBD0",
/* pixels */
"                            ::                            ",
"                          ::::::                          ",
"                        ::::::::::                        ",
"                      ::::::::::::::                      ",
"                    ::::::::::::::::::                    ",
"                  ::::::::::::::::::::::                  ",
"                ::::::::::::::::::::::::::                ",
"              ::::::::::::::::::::::::::::::              ",
"            ::::::::::::::::::::::::::::::::::            ",
"          ::::::::::::::::::::::::::::::::::::::          ",
"        ::::::::::::::::::::::::::::::::::::::::::        ",
"      ::::::::::::::::::::::::::::::::::::::::::::::      ",
"    ::::::::::::::::::::::::::::::::::::::::::::::::::    ",
"  ::::::::::::::::::::::::::::::::::::::::::::::::::::::  ",
"::::::::::::::::::::::::::::::::::::::::::::::::::::::::%%",
"-;::::::::::::::::::::::::::::::::::::::::::::::::::::::*%",
"-;;;::::::::::::::::::::::::::::::::::::::::::::::::::***%",
"-;;;;;::::::::::::::::::::::::::::::::::::::::::::::*****%",
"-;;;;;;;::::::::::::::::::::::::::::::::::::::::::*******%",
"-;;;;;;;;;::::::::::::::::::::::::::::::::::::::*********%",
"--;;;;;;;;;;::::::::::::::::::::::::::::::::::**********#%",
"-;--;;;;;;;;;;::::::::::::::::::::::::::::::**********##*%",
"-;;;--;;;;;;;;-;::::::::::::::::::::::::::*#********##***%",
"-;;;;;--;;;;;;-;;;::::::::::::::::::::::***#******##*****%",
"-;;;;;-;--;;;;-;;;;;::::::::::::::::::*****#****##*#*****%",
"-;;;;;-;;;--;;-;;;;;;;::::::::::::::*******#**##***#*****%",
"--;;;;$;;;;;&&$;;;;;;;;;::::::::::*********o++*****o****#%",
"-;--;;&;;;;;;;$&;;;;;;;;;;::::::**********+o*******+**##*%",
"-;;;--&;;;;;;;;;--;;;;;;;;;;>=**********##*********+##***%",
"-;;;;;--;;;;;;;;;;--;;;;;;;;>=********##**********##*****%",
"-;;;;;;;$$;;;;;;;;;;--;;;;;;>=******##**********oo*******%",
"-;;;;;;;;;--;;;;;;;;;;--;;;;>=****##**********##*********%",
"-@;;;;;;;;;;--;;;;;;;;-;--;;>=**##*#********##**********X%",
"-;$$;;;;;;;;;;--;;;;;;-;;;-->=##***#******##**********oo*%",
"-;;;-$;;;;;;;;-;-$;;;;-;;;;;>=*****#****o#*#********o#***%",
"-;;;;;--;;;;;;-;;;-@;;$;;;;;>=*****o**X#***#******##*****%",
"-;;;;;-;-$;;;;-;;;;;&&$;;;;;>=*****o++*****#****o#*#*****%",
"-;;;;;-;;;--;;-;;;;;;;&&;;;;>=****++*******#**##***#*****%",
"--;;;;-;;;;;---;;;;;;;;;--;;>=**##*********###*****#****#%",
"-;--;;&;;;;;;;--;;;;;;;;;;-->=##**********##*******+**##*%",
"-;;;--&;;;;;;;;;--;;;;;;;;;;>=**********##*********+##***%",
"-;;;;;$$;;;;;;;;;;--;;;;;;;;>=********##**********oo*****%",
"-;;;;;;;--;;;;;;;;;;--;;;;;;>=******##**********##*******%",
"-;;;;;;;;;--;;;;;;;;;;--;;;;>=****##**********##*********%",
"OO;;;;;;;;;;--;;;;;;;;-;--;;>=**##*#********##**********..",
"  OO;;;;;;;;;;&&;;;;;;-;;;-->=##***#******++**********..  ",
"    OO;;;;;;;;&;$@;;;;-;;;;;>=*****#****Xo*+********..    ",
"      OO;;;;;;&;;;-$;;-;;;;;>=*****#**o#***+******..      ",
"        OO;;;;&;;;;;---;;;;;>=*****###*****+****..        ",
"          OO;;-;;;;;;;--;;;;>=****##*******#**..          ",
"            OO-;;;;;;;;;--;;>=**##*********#..            ",
"              OO;;;;;;;;;;-->=##**********..              ",
"                OO;;;;;;;;;;>=**********..                ",
"                  OO;;;;;;;;>=********..                  ",
"                    OO;;;;;;>=******..                    ",
"                      OO;;;;>=****..                      ",
"                        OO;;>=**..                        ",
"                          OO>=..                          ",
"                            O.                            "
};
